<?xml version="1.0" encoding="utf-8"?>
<!-- Generator: Adobe Illustrator 26.1.0, SVG Export Plug-In . SVG Version: 6.00 Build 0)  -->
<svg version="1.1" id="Layer_1" xmlns="http://www.w3.org/2000/svg" xmlns:xlink="http://www.w3.org/1999/xlink" x="0px" y="0px"
	 viewBox="0 0 185.3 71.3" style="enable-background:new 0 0 185.3 71.3;" xml:space="preserve">
<style type="text/css">
	.st0{fill:#FFFFFF;}
</style>
<g id="a">
</g>
<g id="b">
	<g id="c">
		<g>
			<path class="st0" d="M40.7,7.2H0v57h49.9V16.5C49.9,11.4,45.8,7.2,40.7,7.2 M38.1,58.9h-6V47c0-2.9-0.4-4.6-3.4-4.6
				c-2.7,0-4.1,0.7-4.1,4.3v12.2h-6V47.1c0-2.8-0.4-4.7-3.5-4.7c-2.6,0-4.1,0.7-4.1,4.3v12.2H4.8V38h5.7v4.3
				c0.4-1.5,1.8-4.8,6.1-4.8c3.4-0.1,5.3,1.9,6.1,3.6c0.9-1.8,3.2-3.6,6.9-3.6c6.3,0,8.5,3.1,8.5,8.9C38.1,46.4,38.1,58.9,38.1,58.9
				z"/>
			<path class="st0" d="M64.1,8.2h5.5v4.2c0.4-1.5,1.7-4.7,5.9-4.7c3.3-0.1,5.2,1.8,5.9,3.5c0.9-1.8,3.1-3.6,6.7-3.6
				c6.1,0,8.3,3.1,8.3,8.7v12.2h-5.9V17c0-2.8-0.4-4.5-3.3-4.5c-2.7,0-4,0.6-4,4.2v11.9h-5.9V17c0-2.7-0.4-4.6-3.4-4.6
				c-2.5,0-3.9,0.6-3.9,4.2v11.9h-5.9C64.1,28.6,64.1,8.2,64.1,8.2z"/>
			<path class="st0" d="M98.6,18.3c0-7.2,4.1-10.7,11.1-10.7s11.1,3.5,11.1,10.7s-4.2,10.8-11.1,10.8S98.6,25.5,98.6,18.3 M115,18.3
				c0-4.5-1.9-5.8-5.2-5.8s-5.2,1.3-5.2,5.8s1.9,5.9,5.2,5.9S115,22.8,115,18.3"/>
			<path class="st0" d="M128.8,24.4v4.2h-5.9V0h5.9v12.5c0.4-1.5,1.7-4.7,6.3-4.9c7-0.3,10.2,4.4,10.2,10.7v0.2
				c0,6.4-3.2,11.1-10.2,10.7C130.5,29.1,129.2,25.9,128.8,24.4 M139.4,18.6v-0.3c0-3.5-1.5-5.9-5.2-5.9c-3,0-5.1,1.4-5.1,5.7v0.7
				c0,4.4,2.1,5.8,5.1,5.8C137.9,24.6,139.4,22.2,139.4,18.6"/>
			<path class="st0" d="M147.3,0h5.9v5.4h-5.9V0z M147.3,8.2h5.9v20.4h-5.9V8.2z"/>
			<path class="st0" d="M132.8,34.6h6.1V40h-6.1V34.6z M132.8,42.8h6.1v20.4h-6.1V42.8z"/>
			<polygon class="st0" points="155.3,0 161.2,0 161.2,28.6 155.3,28.6 			"/>
			<path class="st0" d="M64.1,42.2h6.1v4.3c0.4-1.5,2-4.8,6.2-4.9c7.3-0.1,9,3.2,9,9.5v12.1h-6.1V50.9c0-3-1-4.5-4.4-4.5
				c-2.9,0-4.7,0.7-4.7,4.5v12.2h-6.1L64.1,42.2L64.1,42.2z"/>
			<path class="st0" d="M87.5,57.1c0-5.9,6.1-7.4,14.3-7.5c0-2.2-0.5-3.2-3.7-3.2s-4.1,0.9-4.2,3.4h-5.6c-0.2-4.8,2.7-8.2,10.1-8.2
				s9.6,3.2,9.6,9.4v12.2h-6V59c-0.4,1.5-1.8,4.9-6.2,4.8C90.2,63.8,87.5,61.4,87.5,57.1 M101.8,55.4v-1.1c-5.3,0-8.2,0.4-8.2,2.4
				c0,1.4,1,2.2,3.3,2.2C99.6,58.8,101.9,57.5,101.8,55.4"/>
			<path class="st0" d="M110.1,55.8h6c0.3,2.6,1.3,3.3,4.9,3.3c2.3,0,3.5-0.6,3.5-1.6c0-1.1-1.1-1.8-5-2.4c-5.5-0.8-8.7-2.5-8.7-6.8
				c0-3.9,3.9-6.6,9.4-6.6c6.6,0,9.9,2.7,9.8,8h-6c0-2.5-1.2-3.2-3.9-3.2c-1.9,0-3.2,0.6-3.2,1.6c0,1.1,1.1,1.7,4.4,2.2
				c6.1,0.8,9.2,2.8,9.2,7s-4.2,6.7-9.8,6.7C114.1,63.9,110.4,61.5,110.1,55.8"/>
			<path class="st0" d="M140.9,64.5h6.2c0.6,1.6,2.1,2,4.6,2c3.5,0,5.4-1.4,5.4-3.6v-4.6c-0.4,1.5-2,4.8-6.2,4.9
				c-7.3,0.1-9-3.2-9-9.6V42.1h6.1v11.6c0,3,0.8,4.5,4.2,4.5c2.9,0,4.5-0.7,4.5-4.5V42.1h6.1V63c0,5.3-4.4,8.3-11.1,8.3
				C146.5,71.3,141.6,70.1,140.9,64.5"/>
			<path class="st0" d="M164.9,57.1c0-5.9,6.1-7.4,14.3-7.5c0-2.2-0.5-3.2-3.7-3.2s-4.1,0.9-4.2,3.4h-5.6c-0.2-4.8,2.7-8.2,10.1-8.2
				s9.6,3.2,9.6,9.4v12.2h-6V59c-0.4,1.5-1.8,4.9-6.2,4.8C167.6,63.8,164.9,61.4,164.9,57.1 M179.2,55.4v-1.1
				c-5.3,0-8.2,0.4-8.2,2.4c0,1.4,1,2.2,3.3,2.2C176.9,58.8,179.2,57.5,179.2,55.4"/>
		</g>
	</g>
</g>
</svg>
