<?xml version="1.0" encoding="UTF-8"?><svg xmlns="http://www.w3.org/2000/svg" viewBox="0 0 49.9 56.96"><defs><style>.d{fill:#e21e25;}</style></defs><g id="a"/><g id="b"><g id="c"><path class="d" d="M40.66,0H0V56.96H49.9V9.24c0-5.1-4.14-9.24-9.24-9.24m-2.6,51.68h-6.05v-11.9c0-2.88-.38-4.63-3.39-4.63-2.67,0-4.13,.66-4.13,4.29v12.24h-6.05v-11.86c0-2.8-.42-4.67-3.51-4.67-2.59,0-4.05,.66-4.05,4.29v12.24H4.83V30.8h5.68v4.35c.42-1.51,1.75-4.76,6.09-4.85,3.43-.08,5.3,1.88,6.1,3.63,.92-1.83,3.21-3.63,6.88-3.63,6.27,0,8.48,3.13,8.48,8.89v12.49Z"/></g></g></svg>